<?xml version="1.0" encoding="UTF-8" standalone="no"?>
<!DOCTYPE svg PUBLIC "-//W3C//DTD SVG 1.1//EN" "http://www.w3.org/Graphics/SVG/1.1/DTD/svg11.dtd">
<svg version="1.1" xmlns="http://www.w3.org/2000/svg" xmlns:xlink="http://www.w3.org/1999/xlink" preserveAspectRatio="xMidYMid meet" viewBox="0 0 640 640" width="640" height="640"><defs><path d="M620.82 198.8C631.41 198.8 640 207.38 640 217.98C640 302.38 640 536.42 640 620.82C640 631.41 631.41 640 620.82 640C496.66 640 143.34 640 19.18 640C8.59 640 0 631.41 0 620.82C0 536.42 0 302.38 0 217.98C0 207.38 8.59 198.8 19.18 198.8C143.34 198.8 496.66 198.8 620.82 198.8Z" id="j9Ma8kvHB"></path><clipPath id="clipb86Tcyo9j"><use xlink:href="#j9Ma8kvHB" opacity="1"></use></clipPath><path d="M351.16 31.94C351.16 49.58 337.2 63.89 320 63.89C302.8 63.89 288.84 49.58 288.84 31.94C288.84 14.31 302.8 0 320 0C337.2 0 351.16 14.31 351.16 31.94Z" id="cdm5IPhNB"></path><clipPath id="clipb2WpDxlovO"><use xlink:href="#cdm5IPhNB" opacity="1"></use></clipPath><path d="" id="b4fYJXcN8a"></path><path d="" id="eOatjnTgZ"></path><path d="" id="n30oxvMdNL"></path><path d="" id="bmwlcShvg"></path><path d="M20.93 203.52L320 0" id="a9zuRItk4"></path><path d="M620.65 203.52L320 0" id="b6nMKTKMx"></path></defs><g><g><g><use xlink:href="#j9Ma8kvHB" opacity="1" fill="#444444" fill-opacity="1"></use><g clip-path="url(#clipb86Tcyo9j)"><use xlink:href="#j9Ma8kvHB" opacity="1" fill-opacity="0" stroke="#f0ebe4" stroke-width="20" stroke-opacity="1"></use></g></g><g><use xlink:href="#cdm5IPhNB" opacity="1" fill="#444444" fill-opacity="1"></use><g clip-path="url(#clipb2WpDxlovO)"><use xlink:href="#cdm5IPhNB" opacity="1" fill-opacity="0" stroke="#f0ebe4" stroke-width="20" stroke-opacity="1"></use></g></g><g><g><use xlink:href="#b4fYJXcN8a" opacity="1" fill-opacity="0" stroke="#f0ebe4" stroke-width="10" stroke-opacity="1"></use></g></g><g><g><use xlink:href="#eOatjnTgZ" opacity="1" fill-opacity="0" stroke="#f0ebe4" stroke-width="10" stroke-opacity="1"></use></g></g><g><g><use xlink:href="#n30oxvMdNL" opacity="1" fill-opacity="0" stroke="#f0ebe4" stroke-width="10" stroke-opacity="1"></use></g></g><g><g><use xlink:href="#bmwlcShvg" opacity="1" fill-opacity="0" stroke="#f0ebe4" stroke-width="10" stroke-opacity="1"></use></g></g><g><g><use xlink:href="#a9zuRItk4" opacity="1" fill-opacity="0" stroke="#f0ebe4" stroke-width="10" stroke-opacity="1"></use></g></g><g><g><use xlink:href="#b6nMKTKMx" opacity="1" fill-opacity="0" stroke="#f0ebe4" stroke-width="10" stroke-opacity="1"></use></g></g></g></g></svg>